<svg enable-background="new 0 0 32 32" height="512" viewBox="0 0 32 32" width="512" xmlns="http://www.w3.org/2000/svg"><g id="Layer_2"><path d="m26 32h-20c-3.314 0-6-2.686-6-6v-20c0-3.314 2.686-6 6-6h20c3.314 0 6 2.686 6 6v20c0 3.314-2.686 6-6 6z" fill="#ffe6e2"/></g><g id="bold_1_"><g><g fill="#fc573b"><path d="m12.667 16.167v3.833h-4v-3.833c0-.46.373-.833.833-.833h2.333c.46-.001.834.373.834.833z"/><path d="m18 13.5v6.5h-4v-6.5c0-.46.373-.833.833-.833h2.333c.461 0 .834.373.834.833z"/><path d="m23.333 10.833v9.167h-4v-9.167c0-.46.373-.833.833-.833h2.334c.46 0 .833.373.833.833z"/></g><path d="m23.5 22h-15c-.276 0-.5-.224-.5-.5s.224-.5.5-.5h15c.276 0 .5.224.5.5s-.224.5-.5.5z" fill="#fd907e"/></g></g></svg>