<?xml version="1.0"?>
<svg xmlns="http://www.w3.org/2000/svg" height="512px" viewBox="0 0 512 512" width="512px" class=""><g><path d="m416 512h-320c-53.023438 0-96-42.976562-96-96v-320c0-53.023438 42.976562-96 96-96h320c53.023438 0 96 42.976562 96 96v320c0 53.023438-42.976562 96-96 96zm0 0" fill="#f5e6fe" data-original="#F5E6FE" class="" style="fill:#FFE6E2" data-old_color="#f5e6fe"/><path d="m309.328125 213.328125c0 29.453125-23.875 53.328125-53.328125 53.328125s-53.328125-23.875-53.328125-53.328125 23.875-53.328125 53.328125-53.328125 53.328125 23.875 53.328125 53.328125zm0 0" fill="#be63f9" data-original="#BE63F9" class="active-path" style="fill:#FC573B" data-old_color="#be63f9"/><path d="m301.328125 288h-90.671875c-27.921875 0-50.65625 22.734375-50.65625 50.671875v37.328125c0 4.414062 3.585938 8 8 8h176c4.414062 0 8-3.585938 8-8v-37.328125c0-27.9375-22.734375-50.671875-50.671875-50.671875zm0 0" fill="#be63f9" data-original="#BE63F9" class="active-path" style="fill:#FC573B" data-old_color="#be63f9"/><g fill="#d9a4fc"><path d="m160 189.328125c-5.886719 0-10.671875-4.769531-10.671875-10.671875v-18.65625c0-17.648438 14.351563-32 32-32h16c5.886719 0 10.671875 4.769531 10.671875 10.671875s-4.785156 10.671875-10.671875 10.671875h-16c-5.886719 0-10.671875 4.785156-10.671875 10.671875v18.671875c.015625 5.871094-4.769531 10.640625-10.65625 10.640625zm0 0" data-original="#D9A4FC" class="" style="fill:#FFE6E2" data-old_color="#D9A4FC"/><path d="m197.328125 277.328125h-16c-17.648437 0-32-14.351563-32-32v-18.671875c0-5.886719 4.785156-10.671875 10.671875-10.671875s10.671875 4.769531 10.671875 10.671875v18.671875c0 5.886719 4.785156 10.671875 10.671875 10.671875h16c5.871094 0 10.65625 4.769531 10.65625 10.671875s-4.785156 10.65625-10.671875 10.65625zm0 0" data-original="#D9A4FC" class="" style="fill:#FFE6E2" data-old_color="#D9A4FC"/><path d="m352 189.328125c-5.886719 0-10.671875-4.769531-10.671875-10.671875v-18.65625c0-5.886719-4.785156-10.671875-10.671875-10.671875h-16c-5.871094 0-10.65625-4.769531-10.65625-10.65625s4.785156-10.671875 10.671875-10.671875h16c17.648437 0 32 14.351562 32 32v18.671875c0 5.886719-4.785156 10.65625-10.671875 10.65625zm0 0" data-original="#D9A4FC" class="" style="fill:#FFE6E2" data-old_color="#D9A4FC"/><path d="m330.671875 277.328125h-16c-5.886719 0-10.671875-4.769531-10.671875-10.671875s4.785156-10.65625 10.671875-10.65625h16c5.886719 0 10.671875-4.785156 10.671875-10.671875v-18.671875c0-5.886719 4.785156-10.671875 10.671875-10.671875s10.671875 4.769531 10.671875 10.671875v18.671875c-.015625 17.648437-14.367188 32-32.015625 32zm0 0" data-original="#D9A4FC" class="" style="fill:#FFE6E2" data-old_color="#D9A4FC"/></g></g> </svg>
