<svg id="bold" enable-background="new 0 0 32 32" height="512" viewBox="0 0 32 32" width="512" xmlns="http://www.w3.org/2000/svg"><path d="m26 32h-20c-3.314 0-6-2.686-6-6v-20c0-3.314 2.686-6 6-6h20c3.314 0 6 2.686 6 6v20c0 3.314-2.686 6-6 6z" fill="#e3f8fa"/><path d="m23.489 19.095c-.07-.067-.176-.168-.192-.196-.01-.053.022-.219.041-.318.059-.308.133-.691-.096-1.019-.238-.342-.639-.391-.933-.426-.093-.011-.235-.028-.255-.032-.035-.037-.096-.177-.135-.27-.121-.278-.286-.66-.676-.792-.391-.132-.738.074-.993.224-.08.047-.214.126-.236.135-.05-.009-.184-.088-.264-.135-.255-.151-.604-.357-.993-.224-.389.132-.555.513-.676.791-.04.092-.101.232-.113.253-.043.021-.184.038-.277.049-.293.035-.695.083-.932.425-.229.329-.156.713-.096 1.021.02.099.051.265.048.301-.022.044-.128.145-.198.212-.217.207-.513.489-.513.906s.296.699.511.905c.07.067.176.168.192.196.01.053-.022.219-.041.318-.059.308-.133.691.096 1.019.238.342.639.391.933.426.093.011.235.028.255.032.035.037.096.177.135.27.121.278.286.66.676.792.391.132.738-.074.993-.224.08-.047.214-.126.236-.135.05.009.184.088.264.135.198.117.452.266.738.266.083 0 .168-.012.255-.042.389-.132.555-.513.676-.791.04-.092.101-.232.113-.253.043-.021.184-.038.277-.049.293-.035.695-.083.932-.425.229-.329.156-.713.096-1.021-.02-.099-.051-.265-.048-.301.022-.044.128-.145.198-.212.217-.206.513-.489.513-.906s-.296-.699-.511-.905zm-4.408.84c-.078.044-.163.065-.247.065-.174 0-.343-.091-.435-.253-.137-.24-.053-.545.187-.682l.112-.064c.204-.116.393-.341.255-.597-.131-.243-.04-.546.202-.677.243-.132.547-.041.678.202.378.7.109 1.517-.641 1.942zm2.565 1.46c-.079.264-.357.415-.622.337l-.124-.037c-.15-.044-.293-.037-.4.022-.09.05-.152.135-.186.251-.062.221-.262.365-.481.365-.044 0-.09-.006-.135-.019-.266-.075-.421-.351-.346-.617.104-.373.34-.677.663-.856.342-.19.757-.227 1.169-.106l.125.037c.265.08.416.359.337.623z" fill="#8ce1eb"/><path d="m16 8c-4.413 0-8 3.587-8 8s3.587 8 8 8c.213 0 .42-.007.633-.027-.34-.14-.693-.373-.973-.773-.187-.267-.287-.533-.34-.793-.96-.733-1.847-2.927-1.973-5.74h1.987l1.333-1.333v-2h1.76c.08.433.147.893.187 1.373.533-.107 1 .02 1.347.173-.033-.54-.093-1.053-.173-1.547h2.32c.287.66.473 1.367.533 2.113.127.153.227.307.307.447.32.073.7.213 1.04.513.005-.133.012-.273.012-.406 0-4.413-3.587-8-8-8zm-6.107 5.333h2.32c-.1.633-.173 1.3-.2 2h-2.646c.073-.706.253-1.373.526-2zm3.48 8.794c-2.18-.94-3.76-3.007-4.007-5.46h2.647c.087 2.226.587 4.146 1.36 5.46zm-.866-10.127h-1.827c.693-.92 1.62-1.667 2.693-2.127-.346.594-.64 1.314-.866 2.127zm2.826 3.333h-1.987c.033-.713.113-1.38.227-2h1.76zm0-3.333h-1.42c.373-1.16.887-2.013 1.42-2.407zm1.334 0v-2.407c.533.394 1.046 1.247 1.42 2.407zm2.826 0c-.227-.813-.52-1.533-.867-2.127 1.073.46 2 1.207 2.693 2.127z" fill="#26c6da"/></svg>